<?xml version="1.0" encoding="UTF-8" standalone="no"?>
<svg
   xmlns:dc="http://purl.org/dc/elements/1.1/"
   xmlns:cc="http://creativecommons.org/ns#"
   xmlns:rdf="http://www.w3.org/1999/02/22-rdf-syntax-ns#"
   xmlns:svg="http://www.w3.org/2000/svg"
   xmlns="http://www.w3.org/2000/svg"
   viewBox="0 0 1200 300"
   height="300"
   width="1200"
   xml:space="preserve"
   id="svg2"
   version="1.1"><metadata
     id="metadata8"><rdf:RDF><cc:Work
         rdf:about=""><dc:format>image/svg+xml</dc:format><dc:type
           rdf:resource="http://purl.org/dc/dcmitype/StillImage" /></cc:Work></rdf:RDF></metadata><defs
     id="defs6"><clipPath
       id="clipPath14"
       clipPathUnits="userSpaceOnUse"><path
         id="path12"
         d="m 0,8.04 h 900 v 225 H 0 Z" /></clipPath><clipPath
       id="clipPath24"
       clipPathUnits="userSpaceOnUse"><path
         style="clip-rule:evenodd"
         id="path22"
         d="M 0,0 H 3750 V 937.5 H 0 Z" /></clipPath><clipPath
       id="clipPath36"
       clipPathUnits="userSpaceOnUse"><path
         id="path34"
         d="M 0,0 H 3750 V 937.5 H 0 Z" /></clipPath><clipPath
       id="clipPath42"
       clipPathUnits="userSpaceOnUse"><path
         id="path40"
         d="M 0,0 H 3750 V 937.5 H 0 Z" /></clipPath><clipPath
       id="clipPath48"
       clipPathUnits="userSpaceOnUse"><path
         id="path46"
         d="m 1250,0 h 312.5 V 312.5 H 1250 Z" /></clipPath><clipPath
       id="clipPath54"
       clipPathUnits="userSpaceOnUse"><path
         id="path52"
         d="m 1343.75,0 h 125 c 51.7767,0 93.75,41.973309 93.75,93.75 v 125 c 0,51.7767 -41.9733,93.75 -93.75,93.75 h -125 c -51.7767,0 -93.75,-41.9733 -93.75,-93.75 v -125 C 1250,41.973309 1291.9733,0 1343.75,0 Z" /></clipPath><clipPath
       id="clipPath62"
       clipPathUnits="userSpaceOnUse"><path
         id="path60"
         d="M 0,0 H 313 V 313 H 0 Z" /></clipPath><clipPath
       id="clipPath78"
       clipPathUnits="userSpaceOnUse"><path
         id="path76"
         d="M 0,0 H 3750 V 937.5 H 0 Z" /></clipPath><clipPath
       id="clipPath84"
       clipPathUnits="userSpaceOnUse"><path
         id="path82"
         d="M 0,0 H 3750 V 937.5 H 0 Z" /></clipPath><clipPath
       id="clipPath90"
       clipPathUnits="userSpaceOnUse"><path
         id="path88"
         d="m 1250,0 h 312.5 V 312.5 H 1250 Z" /></clipPath><clipPath
       id="clipPath96"
       clipPathUnits="userSpaceOnUse"><path
         id="path94"
         d="m 1250,0 h 318.75 V 318.75 H 1250 Z" /></clipPath><clipPath
       id="clipPath102"
       clipPathUnits="userSpaceOnUse"><path
         id="path100"
         d="m 1343.75,0 h 125 c 51.7767,0 93.75,41.973305 93.75,93.75 v 125 c 0,51.7767 -41.9733,93.75 -93.75,93.75 h -125 c -51.7767,0 -93.75,-41.9733 -93.75,-93.75 v -125 C 1250,41.973305 1291.9733,0 1343.75,0 Z" /></clipPath><clipPath
       id="clipPath114"
       clipPathUnits="userSpaceOnUse"><path
         style="clip-rule:evenodd"
         id="path112"
         d="m 1250,0 h 312.5 V 312.5 H 1250 Z" /></clipPath><clipPath
       id="clipPath128"
       clipPathUnits="userSpaceOnUse"><path
         id="path126"
         d="M 0,0 H 3750 V 937.5 H 0 Z" /></clipPath><clipPath
       id="clipPath134"
       clipPathUnits="userSpaceOnUse"><path
         id="path132"
         d="M 0,0 H 3750 V 937.5 H 0 Z" /></clipPath><clipPath
       id="clipPath140"
       clipPathUnits="userSpaceOnUse"><path
         id="path138"
         d="M 625,312.5 H 3125 V 625 H 625 Z" /></clipPath><clipPath
       id="clipPath146"
       clipPathUnits="userSpaceOnUse"><path
         id="path144"
         d="m 718.75,312.5 h 2312.5 c 51.7766,0 93.75,41.9733 93.75,93.75 v 125 c 0,51.77673 -41.9734,93.75 -93.75,93.75 H 718.75 C 666.97333,625 625,583.02673 625,531.25 v -125 c 0,-51.7767 41.97333,-93.75 93.75,-93.75 z" /></clipPath><clipPath
       id="clipPath154"
       clipPathUnits="userSpaceOnUse"><path
         id="path152"
         d="M 0,0 H 2500 V 313 H 0 Z" /></clipPath><clipPath
       id="clipPath170"
       clipPathUnits="userSpaceOnUse"><path
         id="path168"
         d="M 0,0 H 3750 V 937.5 H 0 Z" /></clipPath><clipPath
       id="clipPath176"
       clipPathUnits="userSpaceOnUse"><path
         id="path174"
         d="M 0,0 H 3750 V 937.5 H 0 Z" /></clipPath><clipPath
       id="clipPath182"
       clipPathUnits="userSpaceOnUse"><path
         id="path180"
         d="M 625,312.5 H 3125 V 625 H 625 Z" /></clipPath><clipPath
       id="clipPath188"
       clipPathUnits="userSpaceOnUse"><path
         id="path186"
         d="M 625,312.5 H 3128.125 V 631.25 H 625 Z" /></clipPath><clipPath
       id="clipPath194"
       clipPathUnits="userSpaceOnUse"><path
         id="path192"
         d="m 718.75,312.5 h 2312.5 c 51.7766,0 93.75,41.9733 93.75,93.75 v 125 c 0,51.77673 -41.9734,93.75 -93.75,93.75 H 718.75 C 666.97333,625 625,583.02673 625,531.25 v -125 c 0,-51.7767 41.97333,-93.75 93.75,-93.75 z" /></clipPath><clipPath
       id="clipPath206"
       clipPathUnits="userSpaceOnUse"><path
         style="clip-rule:evenodd"
         id="path204"
         d="m 2187.5,312.5 h 624.875 V 625 H 2187.5 Z" /></clipPath><clipPath
       id="clipPath214"
       clipPathUnits="userSpaceOnUse"><path
         id="path212"
         d="M 0,0 H 626 V 313 H 0 Z" /></clipPath><clipPath
       id="clipPath230"
       clipPathUnits="userSpaceOnUse"><path
         style="clip-rule:evenodd"
         id="path228"
         d="m 1250,312.5 h 312.4375 V 625 H 1250 Z" /></clipPath><clipPath
       id="clipPath238"
       clipPathUnits="userSpaceOnUse"><path
         id="path236"
         d="M 0,0 H 313 V 313 H 0 Z" /></clipPath><clipPath
       id="clipPath254"
       clipPathUnits="userSpaceOnUse"><path
         id="path252"
         d="M 0,0 H 3750 V 937.5 H 0 Z" /></clipPath><clipPath
       id="clipPath260"
       clipPathUnits="userSpaceOnUse"><path
         id="path258"
         d="M 0,0 H 3750 V 937.5 H 0 Z" /></clipPath><clipPath
       id="clipPath266"
       clipPathUnits="userSpaceOnUse"><path
         id="path264"
         d="M 625,312.5 H 3125 V 625 H 625 Z" /></clipPath><clipPath
       id="clipPath272"
       clipPathUnits="userSpaceOnUse"><path
         id="path270"
         d="M 625,312.5 H 3128.125 V 631.25 H 625 Z" /></clipPath><clipPath
       id="clipPath278"
       clipPathUnits="userSpaceOnUse"><path
         id="path276"
         d="m 718.75,312.5 h 2312.5 c 51.7766,0 93.75,41.9733 93.75,93.75 v 125 c 0,51.77673 -41.9734,93.75 -93.75,93.75 H 718.75 C 666.97333,625 625,583.02673 625,531.25 v -125 c 0,-51.7767 41.97333,-93.75 93.75,-93.75 z" /></clipPath><clipPath
       id="clipPath290"
       clipPathUnits="userSpaceOnUse"><path
         style="clip-rule:evenodd"
         id="path288"
         d="M 625,312.5 H 3125 V 625 H 625 Z" /></clipPath><clipPath
       id="clipPath304"
       clipPathUnits="userSpaceOnUse"><path
         id="path302"
         d="M 0,0 H 3750 V 937.5 H 0 Z" /></clipPath><clipPath
       id="clipPath310"
       clipPathUnits="userSpaceOnUse"><path
         id="path308"
         d="M 0,0 H 3750 V 937.5 H 0 Z" /></clipPath><clipPath
       id="clipPath316"
       clipPathUnits="userSpaceOnUse"><path
         id="path314"
         d="m 2187.5,0 h 625 v 312.5 h -625 z" /></clipPath><clipPath
       id="clipPath322"
       clipPathUnits="userSpaceOnUse"><path
         id="path320"
         d="m 2281.25,0 h 437.5 c 51.7769,0 93.75,41.973309 93.75,93.75 v 125 c 0,51.7767 -41.9731,93.75 -93.75,93.75 h -437.5 c -51.7766,0 -93.75,-41.9733 -93.75,-93.75 v -125 C 2187.5,41.973309 2229.4734,0 2281.25,0 Z" /></clipPath><clipPath
       id="clipPath330"
       clipPathUnits="userSpaceOnUse"><path
         id="path328"
         d="M 0,0 H 626 V 313 H 0 Z" /></clipPath><clipPath
       id="clipPath346"
       clipPathUnits="userSpaceOnUse"><path
         id="path344"
         d="M 0,0 H 3750 V 937.5 H 0 Z" /></clipPath><clipPath
       id="clipPath352"
       clipPathUnits="userSpaceOnUse"><path
         id="path350"
         d="M 0,0 H 3750 V 937.5 H 0 Z" /></clipPath><clipPath
       id="clipPath358"
       clipPathUnits="userSpaceOnUse"><path
         id="path356"
         d="m 2187.5,0 h 625 v 312.5 h -625 z" /></clipPath><clipPath
       id="clipPath364"
       clipPathUnits="userSpaceOnUse"><path
         id="path362"
         d="m 2187.5,0 h 628.125 V 318.75 H 2187.5 Z" /></clipPath><clipPath
       id="clipPath370"
       clipPathUnits="userSpaceOnUse"><path
         id="path368"
         d="m 2281.25,0 h 437.5 c 51.7766,0 93.75,41.973305 93.75,93.75 v 125 c 0,51.7767 -41.9734,93.75 -93.75,93.75 h -437.5 c -51.7766,0 -93.75,-41.9733 -93.75,-93.75 v -125 C 2187.5,41.973305 2229.4734,0 2281.25,0 Z" /></clipPath><clipPath
       id="clipPath382"
       clipPathUnits="userSpaceOnUse"><path
         style="clip-rule:evenodd"
         id="path380"
         d="m 2187.5,0 h 625 v 312.5 h -625 z" /></clipPath><clipPath
       id="clipPath396"
       clipPathUnits="userSpaceOnUse"><path
         id="path394"
         d="M 0,0 H 3750 V 937.5 H 0 Z" /></clipPath><clipPath
       id="clipPath402"
       clipPathUnits="userSpaceOnUse"><path
         id="path400"
         d="M 0,0 H 3750 V 937.5 H 0 Z" /></clipPath><clipPath
       id="clipPath408"
       clipPathUnits="userSpaceOnUse"><path
         id="path406"
         d="M 0,625 H 3750 V 937.5 H 0 Z" /></clipPath><clipPath
       id="clipPath414"
       clipPathUnits="userSpaceOnUse"><path
         id="path412"
         d="m 93.75,625 h 3562.5 c 51.7766,0 93.75,41.97333 93.75,93.75 v 125 c 0,51.77673 -41.9734,93.75 -93.75,93.75 H 93.75 C 41.973309,937.5 0,895.52673 0,843.75 v -125 C 0,666.97333 41.973309,625 93.75,625 Z" /></clipPath><clipPath
       id="clipPath422"
       clipPathUnits="userSpaceOnUse"><path
         id="path420"
         d="M 0,0 H 3750 V 313 H 0 Z" /></clipPath><clipPath
       id="clipPath438"
       clipPathUnits="userSpaceOnUse"><path
         id="path436"
         d="M 0,0 H 3750 V 937.5 H 0 Z" /></clipPath><clipPath
       id="clipPath444"
       clipPathUnits="userSpaceOnUse"><path
         id="path442"
         d="M 0,0 H 3750 V 937.5 H 0 Z" /></clipPath><clipPath
       id="clipPath450"
       clipPathUnits="userSpaceOnUse"><path
         id="path448"
         d="M 0,625 H 3750 V 937.5 H 0 Z" /></clipPath><clipPath
       id="clipPath456"
       clipPathUnits="userSpaceOnUse"><path
         id="path454"
         d="M 0,625 H 3750 V 943.75 H 0 Z" /></clipPath><clipPath
       id="clipPath462"
       clipPathUnits="userSpaceOnUse"><path
         id="path460"
         d="m 93.75,625 h 3562.5 c 51.7769,0 93.75,41.97333 93.75,93.75 v 125 c 0,51.77673 -41.9731,93.75 -93.75,93.75 H 93.75 C 41.973305,937.5 0,895.52673 0,843.75 v -125 C 0,666.97333 41.973305,625 93.75,625 Z" /></clipPath><clipPath
       id="clipPath474"
       clipPathUnits="userSpaceOnUse"><path
         style="clip-rule:evenodd"
         id="path472"
         d="M 625,625 H 3125 V 937.5 H 625 Z" /></clipPath><clipPath
       id="clipPath482"
       clipPathUnits="userSpaceOnUse"><path
         id="path480"
         d="M 0,0 H 2500 V 313 H 0 Z" /></clipPath><clipPath
       id="clipPath498"
       clipPathUnits="userSpaceOnUse"><path
         style="clip-rule:evenodd"
         id="path496"
         d="m 3289.1379,625 h 312.5 v 312.5 h -312.5 z" /></clipPath><clipPath
       id="clipPath506"
       clipPathUnits="userSpaceOnUse"><path
         id="path504"
         d="M 0,0 H 313 V 313 H 0 Z" /></clipPath><clipPath
       id="clipPath522"
       clipPathUnits="userSpaceOnUse"><path
         id="path520"
         d="M 0,0 H 3750 V 937.5 H 0 Z" /></clipPath><clipPath
       id="clipPath528"
       clipPathUnits="userSpaceOnUse"><path
         id="path526"
         d="M 0,0 H 3750 V 937.5 H 0 Z" /></clipPath><clipPath
       id="clipPath534"
       clipPathUnits="userSpaceOnUse"><path
         id="path532"
         d="M 0,625 H 3750 V 937.5 H 0 Z" /></clipPath><clipPath
       id="clipPath540"
       clipPathUnits="userSpaceOnUse"><path
         id="path538"
         d="M 0,625 H 3750 V 943.75 H 0 Z" /></clipPath><clipPath
       id="clipPath546"
       clipPathUnits="userSpaceOnUse"><path
         id="path544"
         d="m 93.75,625 h 3562.5 c 51.7769,0 93.75,41.97333 93.75,93.75 v 125 c 0,51.77673 -41.9731,93.75 -93.75,93.75 H 93.75 C 41.973305,937.5 0,895.52673 0,843.75 v -125 C 0,666.97333 41.973305,625 93.75,625 Z" /></clipPath><clipPath
       id="clipPath558"
       clipPathUnits="userSpaceOnUse"><path
         style="clip-rule:evenodd"
         id="path556"
         d="M 0,625 H 3750 V 937.5 H 0 Z" /></clipPath><clipPath
       id="clipPath572"
       clipPathUnits="userSpaceOnUse"><path
         id="path570"
         d="M 0,0 H 3750 V 937.5 H 0 Z" /></clipPath><clipPath
       id="clipPath578"
       clipPathUnits="userSpaceOnUse"><path
         id="path576"
         d="M 0,0 H 3750 V 937.5 H 0 Z" /></clipPath><clipPath
       id="clipPath584"
       clipPathUnits="userSpaceOnUse"><path
         id="path582"
         d="m 3289.1379,312.5 h 312.5 V 625 h -312.5 z" /></clipPath><clipPath
       id="clipPath590"
       clipPathUnits="userSpaceOnUse"><path
         id="path588"
         d="m 3382.8879,312.5 h 125 c 51.7767,0 93.75,41.9733 93.75,93.75 v 125 c 0,51.77673 -41.9733,93.75 -93.75,93.75 h -125 c -51.7766,0 -93.75,-41.97327 -93.75,-93.75 v -125 c 0,-51.7767 41.9734,-93.75 93.75,-93.75 z" /></clipPath><clipPath
       id="clipPath598"
       clipPathUnits="userSpaceOnUse"><path
         id="path596"
         d="M 0,0 H 313 V 313 H 0 Z" /></clipPath><clipPath
       id="clipPath614"
       clipPathUnits="userSpaceOnUse"><path
         id="path612"
         d="M 0,0 H 3750 V 937.5 H 0 Z" /></clipPath><clipPath
       id="clipPath620"
       clipPathUnits="userSpaceOnUse"><path
         id="path618"
         d="M 0,0 H 3750 V 937.5 H 0 Z" /></clipPath><clipPath
       id="clipPath626"
       clipPathUnits="userSpaceOnUse"><path
         id="path624"
         d="m 3289.1379,312.5 h 312.5 V 625 h -312.5 z" /></clipPath><clipPath
       id="clipPath632"
       clipPathUnits="userSpaceOnUse"><path
         id="path630"
         d="m 3289.1379,312.5 h 318.75 v 318.75 h -318.75 z" /></clipPath><clipPath
       id="clipPath638"
       clipPathUnits="userSpaceOnUse"><path
         id="path636"
         d="m 3382.8879,312.5 h 125 c 51.7767,0 93.75,41.9733 93.75,93.75 v 125 c 0,51.77673 -41.9733,93.75 -93.75,93.75 h -125 c -51.7766,0 -93.75,-41.97327 -93.75,-93.75 v -125 c 0,-51.7767 41.9734,-93.75 93.75,-93.75 z" /></clipPath><clipPath
       id="clipPath650"
       clipPathUnits="userSpaceOnUse"><path
         style="clip-rule:evenodd"
         id="path648"
         d="m 3289.1379,312.5 h 312.5 V 625 h -312.5 z" /></clipPath></defs><g
     clip-path="url(#clipPath14)"
     transform="matrix(1.3333333,0,0,-1.3333333,0,310.72)"
     id="g10"><g
       transform="matrix(0.23999999,0,0,-0.23999999,0,233.03999)"
       id="g16"><g
         id="g18"><g
           clip-path="url(#clipPath24)"
           id="g20"><g
             transform="scale(3.125)"
             id="g26"><path
               id="path28"
               style="fill:#ffffff;fill-opacity:1;fill-rule:nonzero;stroke:none"
               d="M 0,0 H 1200 V 300 H 0 Z" /></g></g></g><g
         id="g30"><g
           clip-path="url(#clipPath36)"
           id="g32"><g
             clip-path="url(#clipPath42)"
             id="g38"><g
               clip-path="url(#clipPath48)"
               id="g44"><g
                 clip-path="url(#clipPath54)"
                 id="g50"><g
                   transform="translate(1250)"
                   id="g56"><g
                     id="g58" /><g
                     id="g70"><g
                       id="g68"
                       clip-path="url(#clipPath62)"><g
                         id="g66"
                         transform="scale(1.2207031)"><path
                           id="path64"
                           style="fill:#ffbd59;fill-opacity:1;fill-rule:nonzero;stroke:none"
                           d="M 0,0 H 256 V 256 H 0 Z" /></g></g></g></g></g></g></g></g></g><g
         id="g72"><g
           clip-path="url(#clipPath78)"
           id="g74"><g
             clip-path="url(#clipPath84)"
             id="g80"><g
               clip-path="url(#clipPath90)"
               id="g86"><g
                 clip-path="url(#clipPath96)"
                 id="g92"><g
                   clip-path="url(#clipPath102)"
                   id="g98"><g
                     transform="matrix(3.1249998,0,0,3.1249998,1250,0)"
                     id="g104"><path
                       id="path106"
                       style="fill:none;stroke:#000000;stroke-width:1;stroke-linecap:butt;stroke-linejoin:miter;stroke-miterlimit:10;stroke-dasharray:none;stroke-opacity:1"
                       d="m 30,0 h 40 c 16.568542,0 30,13.431458 30,30 v 40 c 0,16.568542 -13.431458,30 -30,30 H 30 C 13.431458,100 0,86.568542 0,70 V 30 C 0,13.431458 13.431458,0 30,0 Z" /></g></g></g></g></g></g></g><g
         id="g108"><g
           clip-path="url(#clipPath114)"
           id="g110"><g
             transform="matrix(3.125,0,0,3.125,1250,0)"
             id="g116"><text
               id="text120"
               style="font-variant:normal;font-weight:normal;font-size:26.65999985px;font-family:LucidaConsoleW1G;-inkscape-font-specification:LucidaConsoleW1G;writing-mode:lr-tb;fill:#000000;fill-opacity:1;fill-rule:nonzero;stroke:none"
               transform="translate(9.84375,58)"><tspan
                 id="tspan118"
                 y="0"
                 x="0 16.061432 32.122864 48.184296 64.245728">foo()</tspan></text>
</g></g></g><g
         id="g122"><g
           clip-path="url(#clipPath128)"
           id="g124"><g
             clip-path="url(#clipPath134)"
             id="g130"><g
               clip-path="url(#clipPath140)"
               id="g136"><g
                 clip-path="url(#clipPath146)"
                 id="g142"><g
                   transform="translate(625,312)"
                   id="g148"><g
                     id="g150" /><g
                     id="g162"><g
                       id="g160"
                       clip-path="url(#clipPath154)"><g
                         id="g158"
                         transform="matrix(1.2207031,0,0,1.2207031,0,0.5)"><path
                           id="path156"
                           style="fill:#ffbd59;fill-opacity:1;fill-rule:nonzero;stroke:none"
                           d="M 0,0 H 2048 V 256 H 0 Z" /></g></g></g></g></g></g></g></g></g><g
         id="g164"><g
           clip-path="url(#clipPath170)"
           id="g166"><g
             clip-path="url(#clipPath176)"
             id="g172"><g
               clip-path="url(#clipPath182)"
               id="g178"><g
                 clip-path="url(#clipPath188)"
                 id="g184"><g
                   clip-path="url(#clipPath194)"
                   id="g190"><g
                     transform="matrix(3.1249998,0,0,3.1249998,625,312.5)"
                     id="g196"><path
                       id="path198"
                       style="fill:none;stroke:#ff5757;stroke-width:1;stroke-linecap:butt;stroke-linejoin:miter;stroke-miterlimit:10;stroke-dasharray:none;stroke-opacity:1"
                       d="m 30,0 h 740 c 16.56854,0 30,13.431458 30,30 v 40 c 0,16.568542 -13.43146,30 -30,30 H 30 C 13.431458,100 0,86.568542 0,70 V 30 C 0,13.431458 13.431458,0 30,0 Z" /></g></g></g></g></g></g></g><g
         id="g200"><g
           clip-path="url(#clipPath206)"
           id="g202"><g
             transform="translate(2187,312)"
             id="g208"><g
               id="g210" /><g
               id="g222"><g
                 id="g220"
                 clip-path="url(#clipPath214)"><g
                   id="g218"
                   transform="matrix(1.2207031,0,0,1.2207031,0.5,0.5)"><path
                     id="path216"
                     style="fill:#ffffff;fill-opacity:1;fill-rule:nonzero;stroke:none"
                     d="M 0,0 H 512 V 256 H 0 Z" /></g></g></g></g></g></g><g
         id="g224"><g
           clip-path="url(#clipPath230)"
           id="g226"><g
             transform="translate(1250,312)"
             id="g232"><g
               id="g234" /><g
               id="g246"><g
                 id="g244"
                 clip-path="url(#clipPath238)"><g
                   id="g242"
                   transform="matrix(1.220459,0,0,1.220459,0,0.5)"><path
                     id="path240"
                     style="fill:#ffffff;fill-opacity:1;fill-rule:nonzero;stroke:none"
                     d="M 0,0 H 256 V 256 H 0 Z" /></g></g></g></g></g></g><g
         id="g248"><g
           clip-path="url(#clipPath254)"
           id="g250"><g
             clip-path="url(#clipPath260)"
             id="g256"><g
               clip-path="url(#clipPath266)"
               id="g262"><g
                 clip-path="url(#clipPath272)"
                 id="g268"><g
                   clip-path="url(#clipPath278)"
                   id="g274"><g
                     transform="matrix(3.1249998,0,0,3.1249998,625,312.5)"
                     id="g280"><path
                       id="path282"
                       style="fill:none;stroke:#000000;stroke-width:1;stroke-linecap:butt;stroke-linejoin:miter;stroke-miterlimit:10;stroke-dasharray:none;stroke-opacity:1"
                       d="m 30,0 h 740 c 16.56854,0 30,13.431458 30,30 v 40 c 0,16.568542 -13.43146,30 -30,30 H 30 C 13.431458,100 0,86.568542 0,70 V 30 C 0,13.431458 13.431458,0 30,0 Z" /></g></g></g></g></g></g></g><g
         id="g284"><g
           clip-path="url(#clipPath290)"
           id="g286"><g
             transform="matrix(3.125,0,0,3.125,625,312.5)"
             id="g292"><text
               id="text296"
               style="font-variant:normal;font-weight:normal;font-size:26.65999985px;font-family:LucidaConsoleW1G;-inkscape-font-specification:LucidaConsoleW1G;writing-mode:lr-tb;fill:#000000;fill-opacity:1;fill-rule:nonzero;stroke:none"
               transform="translate(359.84375,58)"><tspan
                 id="tspan294"
                 y="0"
                 x="0 16.061432 32.122864 48.184296 64.245728">bar()</tspan></text>
</g></g></g><g
         id="g298"><g
           clip-path="url(#clipPath304)"
           id="g300"><g
             clip-path="url(#clipPath310)"
             id="g306"><g
               clip-path="url(#clipPath316)"
               id="g312"><g
                 clip-path="url(#clipPath322)"
                 id="g318"><g
                   transform="translate(2187)"
                   id="g324"><g
                     id="g326" /><g
                     id="g338"><g
                       id="g336"
                       clip-path="url(#clipPath330)"><g
                         id="g334"
                         transform="matrix(1.2207031,0,0,1.2207031,0.5,0)"><path
                           id="path332"
                           style="fill:#ffbd59;fill-opacity:1;fill-rule:nonzero;stroke:none"
                           d="M 0,0 H 512 V 256 H 0 Z" /></g></g></g></g></g></g></g></g></g><g
         id="g340"><g
           clip-path="url(#clipPath346)"
           id="g342"><g
             clip-path="url(#clipPath352)"
             id="g348"><g
               clip-path="url(#clipPath358)"
               id="g354"><g
                 clip-path="url(#clipPath364)"
                 id="g360"><g
                   clip-path="url(#clipPath370)"
                   id="g366"><g
                     transform="matrix(3.1249998,0,0,3.1249998,2187.5,0)"
                     id="g372"><path
                       id="path374"
                       style="fill:none;stroke:#000000;stroke-width:1;stroke-linecap:butt;stroke-linejoin:miter;stroke-miterlimit:10;stroke-dasharray:none;stroke-opacity:1"
                       d="m 30,0 h 140 c 16.56854,0 30,13.431458 30,30 v 40 c 0,16.568542 -13.43146,30 -30,30 H 30 C 13.431458,100 0,86.568542 0,70 V 30 C 0,13.431458 13.431458,0 30,0 Z" /></g></g></g></g></g></g></g><g
         id="g376"><g
           clip-path="url(#clipPath382)"
           id="g378"><g
             transform="matrix(3.125,0,0,3.125,2187.5,0)"
             id="g384"><text
               id="text388"
               style="font-variant:normal;font-weight:normal;font-size:26.65999985px;font-family:LucidaConsoleW1G;-inkscape-font-specification:LucidaConsoleW1G;writing-mode:lr-tb;fill:#000000;fill-opacity:1;fill-rule:nonzero;stroke:none"
               transform="translate(59.84375,58)"><tspan
                 id="tspan386"
                 y="0"
                 x="0 16.061432 32.122864 48.184296 64.245728">foo()</tspan></text>
</g></g></g><g
         id="g390"><g
           clip-path="url(#clipPath396)"
           id="g392"><g
             clip-path="url(#clipPath402)"
             id="g398"><g
               clip-path="url(#clipPath408)"
               id="g404"><g
                 clip-path="url(#clipPath414)"
                 id="g410"><g
                   transform="translate(0,625)"
                   id="g416"><g
                     id="g418" /><g
                     id="g430"><g
                       id="g428"
                       clip-path="url(#clipPath422)"><g
                         id="g426"
                         transform="scale(1.2207031)"><path
                           id="path424"
                           style="fill:#ffffff;fill-opacity:1;fill-rule:nonzero;stroke:none"
                           d="M 0,0 H 3072 V 256 H 0 Z" /></g></g></g></g></g></g></g></g></g><g
         id="g432"><g
           clip-path="url(#clipPath438)"
           id="g434"><g
             clip-path="url(#clipPath444)"
             id="g440"><g
               clip-path="url(#clipPath450)"
               id="g446"><g
                 clip-path="url(#clipPath456)"
                 id="g452"><g
                   clip-path="url(#clipPath462)"
                   id="g458"><g
                     transform="matrix(3.125,0,0,3.125,0,625)"
                     id="g464"><path
                       id="path466"
                       style="fill:none;stroke:#000000;stroke-width:1;stroke-linecap:butt;stroke-linejoin:miter;stroke-miterlimit:10;stroke-dasharray:none;stroke-opacity:1"
                       d="m 30,0 h 1140 c 16.5686,0 30,13.431458 30,30 v 40 c 0,16.568542 -13.4314,30 -30,30 H 30 C 13.431458,100 0,86.568542 0,70 V 30 C 0,13.431458 13.431458,0 30,0 Z" /></g></g></g></g></g></g></g><g
         id="g468"><g
           clip-path="url(#clipPath474)"
           id="g470"><g
             transform="translate(625,625)"
             id="g476"><g
               id="g478" /><g
               id="g490"><g
                 id="g488"
                 clip-path="url(#clipPath482)"><g
                   id="g486"
                   transform="scale(1.2207031)"><path
                     id="path484"
                     style="fill:#ff5757;fill-opacity:1;fill-rule:nonzero;stroke:none"
                     d="M 0,0 H 2048 V 256 H 0 Z" /></g></g></g></g></g></g><g
         id="g492"><g
           clip-path="url(#clipPath498)"
           id="g494"><g
             transform="translate(3289,625)"
             id="g500"><g
               id="g502" /><g
               id="g514"><g
                 id="g512"
                 clip-path="url(#clipPath506)"><g
                   id="g510"
                   transform="matrix(1.2207031,0,0,1.2207031,0.13793945,0)"><path
                     id="path508"
                     style="fill:#ff5757;fill-opacity:1;fill-rule:nonzero;stroke:none"
                     d="M 0,0 H 256 V 256 H 0 Z" /></g></g></g></g></g></g><g
         id="g516"><g
           clip-path="url(#clipPath522)"
           id="g518"><g
             clip-path="url(#clipPath528)"
             id="g524"><g
               clip-path="url(#clipPath534)"
               id="g530"><g
                 clip-path="url(#clipPath540)"
                 id="g536"><g
                   clip-path="url(#clipPath546)"
                   id="g542"><g
                     transform="matrix(3.125,0,0,3.125,0,625)"
                     id="g548"><path
                       id="path550"
                       style="fill:none;stroke:#000000;stroke-width:1;stroke-linecap:butt;stroke-linejoin:miter;stroke-miterlimit:10;stroke-dasharray:none;stroke-opacity:1"
                       d="m 30,0 h 1140 c 16.5686,0 30,13.431458 30,30 v 40 c 0,16.568542 -13.4314,30 -30,30 H 30 C 13.431458,100 0,86.568542 0,70 V 30 C 0,13.431458 13.431458,0 30,0 Z" /></g></g></g></g></g></g></g><g
         id="g552"><g
           clip-path="url(#clipPath558)"
           id="g554"><g
             transform="matrix(3.125,0,0,3.125,0,625)"
             id="g560"><text
               id="text564"
               style="font-variant:normal;font-weight:normal;font-size:26.65999985px;font-family:LucidaConsoleW1G;-inkscape-font-specification:LucidaConsoleW1G;writing-mode:lr-tb;fill:#000000;fill-opacity:1;fill-rule:nonzero;stroke:none"
               transform="translate(479.53125,58)"><tspan
                 id="tspan562"
                 y="0"
                 x="0 16.061432 32.122864 48.184296 64.245728 80.307159 96.368591 112.43002 128.49146 144.55289 160.61432 176.67575 192.73718 208.79861 224.86005">loop_sequence_1</tspan></text>
</g></g></g><g
         id="g566"><g
           clip-path="url(#clipPath572)"
           id="g568"><g
             clip-path="url(#clipPath578)"
             id="g574"><g
               clip-path="url(#clipPath584)"
               id="g580"><g
                 clip-path="url(#clipPath590)"
                 id="g586"><g
                   transform="translate(3289,312)"
                   id="g592"><g
                     id="g594" /><g
                     id="g606"><g
                       id="g604"
                       clip-path="url(#clipPath598)"><g
                         id="g602"
                         transform="matrix(1.2207031,0,0,1.2207031,0.13793945,0.5)"><path
                           id="path600"
                           style="fill:#ffbd59;fill-opacity:1;fill-rule:nonzero;stroke:none"
                           d="M 0,0 H 256 V 256 H 0 Z" /></g></g></g></g></g></g></g></g></g><g
         id="g608"><g
           clip-path="url(#clipPath614)"
           id="g610"><g
             clip-path="url(#clipPath620)"
             id="g616"><g
               clip-path="url(#clipPath626)"
               id="g622"><g
                 clip-path="url(#clipPath632)"
                 id="g628"><g
                   clip-path="url(#clipPath638)"
                   id="g634"><g
                     transform="matrix(3.1249998,0,0,3.1249998,3289.1379,312.5)"
                     id="g640"><path
                       id="path642"
                       style="fill:none;stroke:#000000;stroke-width:1;stroke-linecap:butt;stroke-linejoin:miter;stroke-miterlimit:10;stroke-dasharray:none;stroke-opacity:1"
                       d="m 30,0 h 40 c 16.568542,0 30,13.431458 30,30 v 40 c 0,16.568542 -13.431458,30 -30,30 H 30 C 13.431458,100 0,86.568542 0,70 V 30 C 0,13.431458 13.431458,0 30,0 Z" /></g></g></g></g></g></g></g><g
         id="g644"><g
           clip-path="url(#clipPath650)"
           id="g646"><g
             transform="matrix(3.125,0,0,3.125,3289.1379,312.5)"
             id="g652"><text
               id="text656"
               style="font-variant:normal;font-weight:normal;font-size:26.65999985px;font-family:LucidaConsoleW1G;-inkscape-font-specification:LucidaConsoleW1G;writing-mode:lr-tb;fill:#000000;fill-opacity:1;fill-rule:nonzero;stroke:none"
               transform="translate(9.84375,58)"><tspan
                 id="tspan654"
                 y="0"
                 x="0 16.061432 32.122864 48.184296 64.245728">baz()</tspan></text>
</g></g></g></g></g></svg>